<?xml version="1.0" encoding="UTF-8" standalone="no"?>
<!DOCTYPE svg PUBLIC "-//W3C//DTD SVG 1.1//EN"
 "http://www.w3.org/Graphics/SVG/1.1/DTD/svg11.dtd">
<!-- Generated by graphviz version 2.40.1 (20161225.0304)
 -->
<!-- Title: dependencies Pages: 1 -->
<svg width="2069pt" height="284pt"
 viewBox="0.00 0.00 2069.00 284.00" xmlns="http://www.w3.org/2000/svg" xmlns:xlink="http://www.w3.org/1999/xlink">
<g id="graph0" class="graph" transform="scale(1 1) rotate(0) translate(4 280)">
<title>dependencies</title>
<polygon fill="#ffffff" stroke="transparent" points="-4,4 -4,-280 2065,-280 2065,4 -4,4"/>
<text text-anchor="start" x="1009.5091" y="-42.4" font-family="sans-serif" font-weight="bold" font-size="14.00" fill="#000000">Legend</text>
<polygon fill="#ffffb3" stroke="transparent" points="796.5,-10 796.5,-30 816.5,-30 816.5,-10 796.5,-10"/>
<text text-anchor="start" x="820.129" y="-15.4" font-family="sans-serif" font-size="14.00" fill="#000000"> &#160;Declarations</text>
<polygon fill="#8dd3c7" stroke="transparent" points="909.5,-10 909.5,-30 929.5,-30 929.5,-10 909.5,-10"/>
<text text-anchor="start" x="933.2251" y="-15.4" font-family="sans-serif" font-size="14.00" fill="#000000"> &#160;Module</text>
<polygon fill="#80b1d3" stroke="transparent" points="995.5,-10 995.5,-30 1015.5,-30 1015.5,-10 995.5,-10"/>
<text text-anchor="start" x="1019.2812" y="-15.4" font-family="sans-serif" font-size="14.00" fill="#000000"> &#160;Bootstrap</text>
<polygon fill="#fdb462" stroke="transparent" points="1092.5,-10 1092.5,-30 1112.5,-30 1112.5,-10 1092.5,-10"/>
<text text-anchor="start" x="1116.1732" y="-15.4" font-family="sans-serif" font-size="14.00" fill="#000000"> &#160;Providers</text>
<polygon fill="#fb8072" stroke="transparent" points="1188.5,-10 1188.5,-30 1208.5,-30 1208.5,-10 1188.5,-10"/>
<text text-anchor="start" x="1212.2258" y="-15.4" font-family="sans-serif" font-size="14.00" fill="#000000"> &#160;Exports</text>
<g id="clust1" class="cluster">
<title>cluster_SharedModule</title>
<polygon fill="none" stroke="#000000" stroke-dasharray="1,5" points="8,-70 8,-268 2053,-268 2053,-70 8,-70"/>
</g>
<g id="clust2" class="cluster">
<title>cluster_SharedModule_declarations</title>
<polygon fill="none" stroke="#000000" points="16,-78 16,-130 2045,-130 2045,-78 16,-78"/>
</g>
<g id="clust16" class="cluster">
<title>cluster_SharedModule_exports</title>
<polygon fill="none" stroke="#000000" points="347,-208 347,-260 1710,-260 1710,-208 347,-208"/>
</g>
<!-- BetColumnComponent -->
<g id="node1" class="node">
<title>BetColumnComponent</title>
<polygon fill="#ffffb3" stroke="#000000" points="2036.892,-122 1891.108,-122 1891.108,-86 2036.892,-86 2036.892,-122"/>
<text text-anchor="middle" x="1964" y="-99.8" font-family="Times,serif" font-size="14.00" fill="#000000">BetColumnComponent</text>
</g>
<!-- SharedModule -->
<g id="node13" class="node">
<title>SharedModule</title>
<polygon fill="#8dd3c7" stroke="#000000" points="1076.4231,-187 1073.4231,-191 1052.4231,-191 1049.4231,-187 977.5769,-187 977.5769,-151 1076.4231,-151 1076.4231,-187"/>
<text text-anchor="middle" x="1027" y="-164.8" font-family="Times,serif" font-size="14.00" fill="#000000">SharedModule</text>
</g>
<!-- BetColumnComponent&#45;&gt;SharedModule -->
<g id="edge1" class="edge">
<title>BetColumnComponent&#45;&gt;SharedModule</title>
<path fill="none" stroke="#000000" d="M1964,-122.308C1964,-142.1455 1964,-171 1964,-171 1964,-171 1086.3863,-171 1086.3863,-171"/>
<polygon fill="#000000" stroke="#000000" points="1086.3863,-167.5001 1076.3863,-171 1086.3863,-174.5001 1086.3863,-167.5001"/>
</g>
<!-- BetSlipComponent -->
<g id="node2" class="node">
<title>BetSlipComponent</title>
<polygon fill="#ffffb3" stroke="#000000" points="1872.8385,-122 1749.1615,-122 1749.1615,-86 1872.8385,-86 1872.8385,-122"/>
<text text-anchor="middle" x="1811" y="-99.8" font-family="Times,serif" font-size="14.00" fill="#000000">BetSlipComponent</text>
</g>
<!-- BetSlipComponent&#45;&gt;SharedModule -->
<g id="edge2" class="edge">
<title>BetSlipComponent&#45;&gt;SharedModule</title>
<path fill="none" stroke="#000000" d="M1811,-122.2222C1811,-140.8285 1811,-167 1811,-167 1811,-167 1086.3397,-167 1086.3397,-167"/>
<polygon fill="#000000" stroke="#000000" points="1086.3397,-163.5001 1076.3397,-167 1086.3397,-170.5001 1086.3397,-163.5001"/>
</g>
<!-- BetSlipMultiComponent -->
<g id="node3" class="node">
<title>BetSlipMultiComponent</title>
<polygon fill="#ffffb3" stroke="#000000" points="1731.4551,-122 1576.5449,-122 1576.5449,-86 1731.4551,-86 1731.4551,-122"/>
<text text-anchor="middle" x="1654" y="-99.8" font-family="Times,serif" font-size="14.00" fill="#000000">BetSlipMultiComponent</text>
</g>
<!-- BetSlipMultiComponent&#45;&gt;SharedModule -->
<g id="edge3" class="edge">
<title>BetSlipMultiComponent&#45;&gt;SharedModule</title>
<path fill="none" stroke="#000000" d="M1639.2344,-122.0225C1639.2344,-139.3734 1639.2344,-163 1639.2344,-163 1639.2344,-163 1086.3247,-163 1086.3247,-163"/>
<polygon fill="#000000" stroke="#000000" points="1086.3247,-159.5001 1076.3247,-163 1086.3246,-166.5001 1086.3247,-159.5001"/>
</g>
<!-- BetSlipSettingsComponent -->
<g id="node4" class="node">
<title>BetSlipSettingsComponent</title>
<polygon fill="#ffffb3" stroke="#000000" points="1559.4522,-122 1390.5478,-122 1390.5478,-86 1559.4522,-86 1559.4522,-122"/>
<text text-anchor="middle" x="1475" y="-99.8" font-family="Times,serif" font-size="14.00" fill="#000000">BetSlipSettingsComponent</text>
</g>
<!-- BetSlipSettingsComponent&#45;&gt;SharedModule -->
<g id="edge4" class="edge">
<title>BetSlipSettingsComponent&#45;&gt;SharedModule</title>
<path fill="none" stroke="#000000" d="M1399.1776,-122.0091C1399.1776,-138.0494 1399.1776,-159 1399.1776,-159 1399.1776,-159 1086.4223,-159 1086.4223,-159"/>
<polygon fill="#000000" stroke="#000000" points="1086.4223,-155.5001 1076.4223,-159 1086.4223,-162.5001 1086.4223,-155.5001"/>
</g>
<!-- BetSlipSingleComponent -->
<g id="node5" class="node">
<title>BetSlipSingleComponent</title>
<polygon fill="#ffffb3" stroke="#000000" points="1372.6164,-122 1213.3836,-122 1213.3836,-86 1372.6164,-86 1372.6164,-122"/>
<text text-anchor="middle" x="1293" y="-99.8" font-family="Times,serif" font-size="14.00" fill="#000000">BetSlipSingleComponent</text>
</g>
<!-- BetSlipSingleComponent&#45;&gt;SharedModule -->
<g id="edge5" class="edge">
<title>BetSlipSingleComponent&#45;&gt;SharedModule</title>
<path fill="none" stroke="#000000" d="M1321.0469,-122.1243C1321.0469,-136.7832 1321.0469,-155 1321.0469,-155 1321.0469,-155 1086.2168,-155 1086.2168,-155"/>
<polygon fill="#000000" stroke="#000000" points="1086.2169,-151.5001 1076.2168,-155 1086.2168,-158.5001 1086.2169,-151.5001"/>
</g>
<!-- BetSlipSystemComponent -->
<g id="node6" class="node">
<title>BetSlipSystemComponent</title>
<polygon fill="#ffffb3" stroke="#000000" points="1195.0616,-122 1030.9384,-122 1030.9384,-86 1195.0616,-86 1195.0616,-122"/>
<text text-anchor="middle" x="1113" y="-99.8" font-family="Times,serif" font-size="14.00" fill="#000000">BetSlipSystemComponent</text>
</g>
<!-- BetSlipSystemComponent&#45;&gt;SharedModule -->
<g id="edge6" class="edge">
<title>BetSlipSystemComponent&#45;&gt;SharedModule</title>
<path fill="none" stroke="#000000" d="M1053.4653,-122.1061C1053.4653,-122.1061 1053.4653,-140.991 1053.4653,-140.991"/>
<polygon fill="#000000" stroke="#000000" points="1049.9654,-140.9909 1053.4653,-150.991 1056.9654,-140.991 1049.9654,-140.9909"/>
</g>
<!-- BreadcrumbNamePipe -->
<g id="node7" class="node">
<title>BreadcrumbNamePipe</title>
<polygon fill="#ffffb3" stroke="#000000" points="1012.5072,-122 869.4928,-122 869.4928,-86 1012.5072,-86 1012.5072,-122"/>
<text text-anchor="middle" x="941" y="-99.8" font-family="Times,serif" font-size="14.00" fill="#000000">BreadcrumbNamePipe</text>
</g>
<!-- BreadcrumbNamePipe&#45;&gt;SharedModule -->
<g id="edge7" class="edge">
<title>BreadcrumbNamePipe&#45;&gt;SharedModule</title>
<path fill="none" stroke="#000000" d="M995.2711,-122.1061C995.2711,-122.1061 995.2711,-140.991 995.2711,-140.991"/>
<polygon fill="#000000" stroke="#000000" points="991.7711,-140.9909 995.2711,-150.991 998.7711,-140.991 991.7711,-140.9909"/>
</g>
<!-- BreadcrumbsComponent -->
<g id="node8" class="node">
<title>BreadcrumbsComponent</title>
<polygon fill="#ffffb3" stroke="#000000" points="850.9692,-122 695.0308,-122 695.0308,-86 850.9692,-86 850.9692,-122"/>
<text text-anchor="middle" x="773" y="-99.8" font-family="Times,serif" font-size="14.00" fill="#000000">BreadcrumbsComponent</text>
</g>
<!-- BreadcrumbsComponent&#45;&gt;SharedModule -->
<g id="edge8" class="edge">
<title>BreadcrumbsComponent&#45;&gt;SharedModule</title>
<path fill="none" stroke="#000000" d="M836.6434,-122.1243C836.6434,-136.7832 836.6434,-155 836.6434,-155 836.6434,-155 967.483,-155 967.483,-155"/>
<polygon fill="#000000" stroke="#000000" points="967.483,-158.5001 977.483,-155 967.4829,-151.5001 967.483,-158.5001"/>
</g>
<!-- LeftColumnNavComponent -->
<g id="node9" class="node">
<title>LeftColumnNavComponent</title>
<polygon fill="#ffffb3" stroke="#000000" points="676.5898,-122 503.4102,-122 503.4102,-86 676.5898,-86 676.5898,-122"/>
<text text-anchor="middle" x="590" y="-99.8" font-family="Times,serif" font-size="14.00" fill="#000000">LeftColumnNavComponent</text>
</g>
<!-- LeftColumnNavComponent&#45;&gt;SharedModule -->
<g id="edge9" class="edge">
<title>LeftColumnNavComponent&#45;&gt;SharedModule</title>
<path fill="none" stroke="#000000" d="M583.7994,-122.0091C583.7994,-138.0494 583.7994,-159 583.7994,-159 583.7994,-159 967.4493,-159 967.4493,-159"/>
<polygon fill="#000000" stroke="#000000" points="967.4494,-162.5001 977.4493,-159 967.4493,-155.5001 967.4494,-162.5001"/>
</g>
<!-- MyBetsComponent -->
<g id="node10" class="node">
<title>MyBetsComponent</title>
<polygon fill="#ffffb3" stroke="#000000" points="485.6638,-122 360.3362,-122 360.3362,-86 485.6638,-86 485.6638,-122"/>
<text text-anchor="middle" x="423" y="-99.8" font-family="Times,serif" font-size="14.00" fill="#000000">MyBetsComponent</text>
</g>
<!-- MyBetsComponent&#45;&gt;SharedModule -->
<g id="edge10" class="edge">
<title>MyBetsComponent&#45;&gt;SharedModule</title>
<path fill="none" stroke="#000000" d="M423,-122.0225C423,-139.3734 423,-163 423,-163 423,-163 967.5721,-163 967.5721,-163"/>
<polygon fill="#000000" stroke="#000000" points="967.5722,-166.5001 977.5721,-163 967.5721,-159.5001 967.5722,-166.5001"/>
</g>
<!-- OhbSelectComponent -->
<g id="node11" class="node">
<title>OhbSelectComponent</title>
<polygon fill="#ffffb3" stroke="#000000" points="341.647,-122 202.353,-122 202.353,-86 341.647,-86 341.647,-122"/>
<text text-anchor="middle" x="272" y="-99.8" font-family="Times,serif" font-size="14.00" fill="#000000">OhbSelectComponent</text>
</g>
<!-- OhbSelectComponent&#45;&gt;SharedModule -->
<g id="edge11" class="edge">
<title>OhbSelectComponent&#45;&gt;SharedModule</title>
<path fill="none" stroke="#000000" d="M272,-122.2222C272,-140.8285 272,-167 272,-167 272,-167 967.7536,-167 967.7536,-167"/>
<polygon fill="#000000" stroke="#000000" points="967.7536,-170.5001 977.7536,-167 967.7535,-163.5001 967.7536,-170.5001"/>
</g>
<!-- StakeNumpadComponent -->
<g id="node12" class="node">
<title>StakeNumpadComponent</title>
<polygon fill="#ffffb3" stroke="#000000" points="184.147,-122 23.853,-122 23.853,-86 184.147,-86 184.147,-122"/>
<text text-anchor="middle" x="104" y="-99.8" font-family="Times,serif" font-size="14.00" fill="#000000">StakeNumpadComponent</text>
</g>
<!-- StakeNumpadComponent&#45;&gt;SharedModule -->
<g id="edge12" class="edge">
<title>StakeNumpadComponent&#45;&gt;SharedModule</title>
<path fill="none" stroke="#000000" d="M104,-122.308C104,-142.1455 104,-171 104,-171 104,-171 967.7018,-171 967.7018,-171"/>
<polygon fill="#000000" stroke="#000000" points="967.7019,-174.5001 977.7018,-171 967.7018,-167.5001 967.7019,-174.5001"/>
</g>
<!-- BetColumnComponent  -->
<g id="node14" class="node">
<title>BetColumnComponent </title>
<polygon fill="#fb8072" stroke="#000000" points="1701.8925,-252 1552.1075,-252 1552.1075,-216 1701.8925,-216 1701.8925,-252"/>
<text text-anchor="middle" x="1627" y="-229.8" font-family="Times,serif" font-size="14.00" fill="#000000">BetColumnComponent </text>
</g>
<!-- SharedModule&#45;&gt;BetColumnComponent  -->
<g id="edge13" class="edge">
<title>SharedModule&#45;&gt;BetColumnComponent </title>
<path fill="none" stroke="#000000" stroke-dasharray="5,2" d="M1076.4443,-175C1209.9962,-175 1567.9993,-175 1567.9993,-175 1567.9993,-175 1567.9993,-205.9775 1567.9993,-205.9775"/>
<polygon fill="#000000" stroke="#000000" points="1564.4994,-205.9774 1567.9993,-215.9775 1571.4994,-205.9775 1564.4994,-205.9774"/>
</g>
<!-- BetSlipComponent  -->
<g id="node15" class="node">
<title>BetSlipComponent </title>
<polygon fill="#fb8072" stroke="#000000" points="1534.3381,-252 1407.6619,-252 1407.6619,-216 1534.3381,-216 1534.3381,-252"/>
<text text-anchor="middle" x="1471" y="-229.8" font-family="Times,serif" font-size="14.00" fill="#000000">BetSlipComponent </text>
</g>
<!-- SharedModule&#45;&gt;BetSlipComponent  -->
<g id="edge14" class="edge">
<title>SharedModule&#45;&gt;BetSlipComponent </title>
<path fill="none" stroke="#000000" stroke-dasharray="5,2" d="M1076.2122,-179C1191.813,-179 1471,-179 1471,-179 1471,-179 1471,-205.9909 1471,-205.9909"/>
<polygon fill="#000000" stroke="#000000" points="1467.5001,-205.9909 1471,-215.9909 1474.5001,-205.991 1467.5001,-205.9909"/>
</g>
<!-- BetSlipSettingsComponent  -->
<g id="node16" class="node">
<title>BetSlipSettingsComponent </title>
<polygon fill="#fb8072" stroke="#000000" points="1389.9516,-252 1218.0484,-252 1218.0484,-216 1389.9516,-216 1389.9516,-252"/>
<text text-anchor="middle" x="1304" y="-229.8" font-family="Times,serif" font-size="14.00" fill="#000000">BetSlipSettingsComponent </text>
</g>
<!-- SharedModule&#45;&gt;BetSlipSettingsComponent  -->
<g id="edge15" class="edge">
<title>SharedModule&#45;&gt;BetSlipSettingsComponent </title>
<path fill="none" stroke="#000000" stroke-dasharray="5,2" d="M1076.373,-183C1147.2868,-183 1269.5355,-183 1269.5355,-183 1269.5355,-183 1269.5355,-205.8757 1269.5355,-205.8757"/>
<polygon fill="#000000" stroke="#000000" points="1266.0356,-205.8757 1269.5355,-215.8757 1273.0356,-205.8757 1266.0356,-205.8757"/>
</g>
<!-- BreadcrumbsComponent  -->
<g id="node17" class="node">
<title>BreadcrumbsComponent </title>
<polygon fill="#fb8072" stroke="#000000" points="1199.9699,-252 1040.0301,-252 1040.0301,-216 1199.9699,-216 1199.9699,-252"/>
<text text-anchor="middle" x="1120" y="-229.8" font-family="Times,serif" font-size="14.00" fill="#000000">BreadcrumbsComponent </text>
</g>
<!-- SharedModule&#45;&gt;BreadcrumbsComponent  -->
<g id="edge16" class="edge">
<title>SharedModule&#45;&gt;BreadcrumbsComponent </title>
<path fill="none" stroke="#000000" stroke-dasharray="5,2" d="M1058.2382,-187.1061C1058.2382,-187.1061 1058.2382,-205.991 1058.2382,-205.991"/>
<polygon fill="#000000" stroke="#000000" points="1054.7383,-205.9909 1058.2382,-215.991 1061.7383,-205.991 1054.7383,-205.9909"/>
</g>
<!-- LeftColumnNavComponent  -->
<g id="node18" class="node">
<title>LeftColumnNavComponent </title>
<polygon fill="#fb8072" stroke="#000000" points="1022.0903,-252 845.9097,-252 845.9097,-216 1022.0903,-216 1022.0903,-252"/>
<text text-anchor="middle" x="934" y="-229.8" font-family="Times,serif" font-size="14.00" fill="#000000">LeftColumnNavComponent </text>
</g>
<!-- SharedModule&#45;&gt;LeftColumnNavComponent  -->
<g id="edge17" class="edge">
<title>SharedModule&#45;&gt;LeftColumnNavComponent </title>
<path fill="none" stroke="#000000" stroke-dasharray="5,2" d="M1000.0419,-187.1061C1000.0419,-187.1061 1000.0419,-205.991 1000.0419,-205.991"/>
<polygon fill="#000000" stroke="#000000" points="996.542,-205.9909 1000.0419,-215.991 1003.542,-205.991 996.542,-205.9909"/>
</g>
<!-- MyBetsComponent  -->
<g id="node19" class="node">
<title>MyBetsComponent </title>
<polygon fill="#fb8072" stroke="#000000" points="827.6635,-252 698.3365,-252 698.3365,-216 827.6635,-216 827.6635,-252"/>
<text text-anchor="middle" x="763" y="-229.8" font-family="Times,serif" font-size="14.00" fill="#000000">MyBetsComponent </text>
</g>
<!-- SharedModule&#45;&gt;MyBetsComponent  -->
<g id="edge18" class="edge">
<title>SharedModule&#45;&gt;MyBetsComponent </title>
<path fill="none" stroke="#000000" stroke-dasharray="5,2" d="M977.6533,-183C901.2421,-183 763,-183 763,-183 763,-183 763,-205.8757 763,-205.8757"/>
<polygon fill="#000000" stroke="#000000" points="759.5001,-205.8757 763,-215.8757 766.5001,-205.8757 759.5001,-205.8757"/>
</g>
<!-- OhbSelectComponent  -->
<g id="node20" class="node">
<title>OhbSelectComponent </title>
<polygon fill="#fb8072" stroke="#000000" points="680.6467,-252 537.3533,-252 537.3533,-216 680.6467,-216 680.6467,-252"/>
<text text-anchor="middle" x="609" y="-229.8" font-family="Times,serif" font-size="14.00" fill="#000000">OhbSelectComponent </text>
</g>
<!-- SharedModule&#45;&gt;OhbSelectComponent  -->
<g id="edge19" class="edge">
<title>SharedModule&#45;&gt;OhbSelectComponent </title>
<path fill="none" stroke="#000000" stroke-dasharray="5,2" d="M977.5438,-179C871.1671,-179 630.1722,-179 630.1722,-179 630.1722,-179 630.1722,-205.9909 630.1722,-205.9909"/>
<polygon fill="#000000" stroke="#000000" points="626.6723,-205.9909 630.1722,-215.9909 633.6723,-205.991 626.6723,-205.9909"/>
</g>
<!-- StakeNumpadComponent  -->
<g id="node21" class="node">
<title>StakeNumpadComponent </title>
<polygon fill="#fb8072" stroke="#000000" points="519.1467,-252 354.8533,-252 354.8533,-216 519.1467,-216 519.1467,-252"/>
<text text-anchor="middle" x="437" y="-229.8" font-family="Times,serif" font-size="14.00" fill="#000000">StakeNumpadComponent </text>
</g>
<!-- SharedModule&#45;&gt;StakeNumpadComponent  -->
<g id="edge20" class="edge">
<title>SharedModule&#45;&gt;StakeNumpadComponent </title>
<path fill="none" stroke="#000000" stroke-dasharray="5,2" d="M977.5491,-175C848.4646,-175 511.2642,-175 511.2642,-175 511.2642,-175 511.2642,-205.9775 511.2642,-205.9775"/>
<polygon fill="#000000" stroke="#000000" points="507.7643,-205.9774 511.2642,-215.9775 514.7643,-205.9775 507.7643,-205.9774"/>
</g>
</g>
</svg>
