<svg xmlns="http://www.w3.org/2000/svg" width="107.576" height="107.576" viewBox="0 0 107.576 107.576">
    <g>
        <path fill="none" stroke="#747577" stroke-miterlimit="10" stroke-width="7px" d="M104.551 64A40.551 40.551 0 1 1 64 104.551 40.551 40.551 0 0 1 104.551 64z" transform="translate(4.95 3.5) translate(-45.977 -64)"/>
        <path fill="none" stroke="#747577" stroke-linecap="round" stroke-miterlimit="10" stroke-width="7px" d="M28.321 0L0 28.321" transform="translate(4.95 3.5) translate(0 70.805)"/>
        <path fill="#747577" d="M24.7 46.359a2.763 2.763 0 1 1 2.787-2.771 2.77 2.77 0 0 1-2.787 2.771zm5.544-18.907c-3.739 3.69-3.641 4.494-3.82 8.741h-3.117c.18-4.674 1.229-7.167 4.935-10.577 1.8-1.689 3.181-3.722 3.181-6.248 0-3.869-3.181-6.542-6.985-6.542-5.313 0-7.953 2.689-7.855 7.608H13.5c.049-6.887 4-10.182 11.085-10.182 5.411 0 9.9 3.344 9.9 8.953 0 3.592-1.754 5.935-4.247 8.249z" transform="translate(4.95 3.5) translate(34.138 12.078)"/>
    </g>
</svg>
