<svg xmlns="http://www.w3.org/2000/svg" width="23.467" height="16.5" viewBox="0 0 23.467 16.5">
  <path id="live" d="M23.618-13.918a2.949,2.949,0,0,0-2.075-2.088c-1.83-.494-9.168-.494-9.168-.494s-7.338,0-9.168.494a2.949,2.949,0,0,0-2.075,2.088,30.932,30.932,0,0,0-.49,5.685,30.932,30.932,0,0,0,.49,5.685A2.9,2.9,0,0,0,3.207-.494C5.037,0,12.375,0,12.375,0s7.338,0,9.168-.494a2.9,2.9,0,0,0,2.075-2.055,30.932,30.932,0,0,0,.49-5.685A30.932,30.932,0,0,0,23.618-13.918ZM9.975-4.744v-6.978l6.133,3.489Z" transform="translate(-0.642 16.5)" fill="#61697d"/>
</svg>
