<svg xmlns="http://www.w3.org/2000/svg" width="18.4" height="18.4" viewBox="0 0 18.4 18.4">
  <defs>
    <style>
      .cls-1 {
        fill: #4c4c4c;
        stroke: #252525;
        stroke-width: 0.4px;
      }
    </style>
  </defs>
  <path id="question-circle-o" class="cls-1" d="M10.312,12.562v1.875a.361.361,0,0,1-.375.375H8.062a.361.361,0,0,1-.375-.375V12.562a.361.361,0,0,1,.375-.375H9.938a.361.361,0,0,1,.375.375Zm3-5.812A2.982,2.982,0,0,1,13.137,7.8a2.139,2.139,0,0,1-.533.808,5.479,5.479,0,0,1-.609.516q-.252.176-.7.422-.375.211-.545.328a1.491,1.491,0,0,0-.3.281.53.53,0,0,0-.135.339v.375a.361.361,0,0,1-.375.375H8.062a.361.361,0,0,1-.375-.375v-.8a2.232,2.232,0,0,1,.123-.756,2.124,2.124,0,0,1,.281-.556,1.915,1.915,0,0,1,.457-.416,4.94,4.94,0,0,1,.481-.3q.182-.094.521-.246a4.537,4.537,0,0,0,.879-.5.705.705,0,0,0,.258-.574,1,1,0,0,0-.51-.838,1.941,1.941,0,0,0-1.119-.345,1.908,1.908,0,0,0-1.113.316,5.364,5.364,0,0,0-.938.973.346.346,0,0,1-.293.141.362.362,0,0,1-.223-.07L5.225,5.942a.334.334,0,0,1-.141-.234.36.36,0,0,1,.058-.269,4.569,4.569,0,0,1,4.089-2.25,4.324,4.324,0,0,1,2.8,1.049A3.157,3.157,0,0,1,13.312,6.75ZM9,1.5a7.291,7.291,0,0,0-2.912.6A7.394,7.394,0,0,0,2.1,6.087a7.391,7.391,0,0,0,0,5.824A7.6,7.6,0,0,0,3.7,14.3a7.539,7.539,0,0,0,2.391,1.6,7.394,7.394,0,0,0,5.823,0,7.394,7.394,0,0,0,3.99-3.99,7.394,7.394,0,0,0,0-5.823A7.539,7.539,0,0,0,14.3,3.7a7.6,7.6,0,0,0-2.391-1.6A7.276,7.276,0,0,0,9,1.5ZM18,9a8.809,8.809,0,0,1-1.207,4.518,8.949,8.949,0,0,1-3.275,3.275A8.817,8.817,0,0,1,9,18a8.794,8.794,0,0,1-4.518-1.207,8.966,8.966,0,0,1-3.275-3.275A8.8,8.8,0,0,1,0,9,8.8,8.8,0,0,1,1.207,4.482,8.966,8.966,0,0,1,4.482,1.207,8.794,8.794,0,0,1,9,0a8.817,8.817,0,0,1,4.518,1.207,8.949,8.949,0,0,1,3.275,3.275A8.809,8.809,0,0,1,18,9Z" transform="translate(0.2 0.2)"/>
</svg>
