<svg xmlns="http://www.w3.org/2000/svg" id="prefix___007-netherlands" width="22.455" height="14.487" data-name="007-netherlands" viewBox="0 0 22.455 14.487">
    <g id="prefix__Group_124" data-name="Group 124">
        <g id="prefix__Group_123" data-name="Group 123">
            <path id="prefix__Path_35" fill="#e5646e" d="M29.786 95.668v-4.1a.724.724 0 0 0-.724-.724H8.055l-.388.724v4.1l.75.966H28.7z" data-name="Path 35" transform="translate(-7.331 -90.839)"/>
            <path id="prefix__Path_36" fill="#db4655" d="M0 91.563v4.1l.724.644v-5.468a.724.724 0 0 0-.724.724z" data-name="Path 36" transform="translate(0 -90.839)"/>
            <path id="prefix__Path_37" fill="#5055a0" d="M7.817 290v3.791a.724.724 0 0 0 .724.724H29.2l.724-.41V290l-1.086-.966H8.561z" data-name="Path 37" transform="translate(-7.474 -280.34)"/>
            <path id="prefix__Path_38" fill="#3f3f8f" d="M.724 298.948v-2.575l-.724.644v4.1a.724.724 0 0 0 .724.724H21.73a.724.724 0 0 0 .724-.724H2.9a2.173 2.173 0 0 1-2.173-2.173z" data-name="Path 38" transform="translate(0 -287.359)"/>
            <path id="prefix__Path_39" fill="#f2f2f6" d="M8.667 205.159l.344.616h21.73v-4.829H9.011l-.344.763z" data-name="Path 39" transform="translate(-8.287 -196.117)"/>
            <path id="prefix__Path_40" fill="#e1e1e6" d="M0 200.946h.724v4.829H0z" data-name="Path 40" transform="translate(0 -196.117)"/>
        </g>
    </g>
</svg>
