<svg xmlns="http://www.w3.org/2000/svg" width="22.455" height="14.298" viewBox="0 0 22.455 14.298">
    <g id="prefix___047-germany" data-name="047-germany" transform="translate(0 -90.839)">
        <path id="prefix__Path_63" fill="#5d5360" d="M29.79 95.6v-4.046a.72.72 0 0 0-.724-.715H8.055l-.388.715V95.6l.75.953H28.7z" data-name="Path 63" transform="translate(-7.335)"/>
        <path id="prefix__Path_64" fill="#4b3f4e" d="M0 91.554V95.6l.715.636v-5.4a.715.715 0 0 0-.715.718z" data-name="Path 64"/>
        <path id="prefix__Path_65" fill="#ffe07d" d="M7.817 289.985v3.741a.72.72 0 0 0 .724.715h20.668l.724-.4v-4.051l-1.087-.953H8.561z" data-name="Path 65" transform="translate(-7.479 -189.614)"/>
        <path id="prefix__Path_66" fill="#ffd064" d="M.724 298.915v-2.542l-.724.635v4.051a.72.72 0 0 0 .724.715H21.73a.72.72 0 0 0 .724-.715H2.9a2.159 2.159 0 0 1-2.173-2.145z" data-name="Path 66" transform="translate(0 -196.638)"/>
        <path id="prefix__Path_67" fill="#e5646e" d="M8.667 205.1l.344.608h21.736v-4.766H9.011l-.344.753z" data-name="Path 67" transform="translate(-8.292 -105.341)"/>
        <path id="prefix__Path_68" fill="#db4655" d="M0 200.946h.715v4.766H0z" data-name="Path 68" transform="translate(0 -105.341)"/>
    </g>
</svg>
