<svg xmlns="http://www.w3.org/2000/svg" width="12.5" height="14.773" viewBox="0 0 12.5 14.773">
    <path fill="#ddd" d="M11.367 0a1.079 1.079 0 0 1 .43.088 1.106 1.106 0 0 1 .513.4 1.026 1.026 0 0 1 .19.605v12.588a1.035 1.035 0 0 1-.19.605 1.139 1.139 0 0 1-.943.478 1.161 1.161 0 0 1-.811-.313L6.249 10.31l-4.307 4.141a1.166 1.166 0 0 1-.811.322 1.079 1.079 0 0 1-.43-.088 1.106 1.106 0 0 1-.513-.4 1.012 1.012 0 0 1-.188-.6V1.094A1.035 1.035 0 0 1 .19.489 1.105 1.105 0 0 1 .7.088 1.079 1.079 0 0 1 1.133 0h10.234z"/>
</svg>
