<svg xmlns="http://www.w3.org/2000/svg" width="14.826" height="14.792" viewBox="0 0 14.826 14.792">
    <path fill="#d1d1d1" d="M7.413.1a7.143 7.143 0 0 1 5.243 2.17 7.124 7.124 0 0 1 2.17 5.23 7.124 7.124 0 0 1-2.17 5.226A7.143 7.143 0 0 1 7.413 14.9a7.143 7.143 0 0 1-5.243-2.17A7.124 7.124 0 0 1 0 7.5a7.124 7.124 0 0 1 2.17-5.226A7.143 7.143 0 0 1 7.413.1zm.747 12.57v-1.454H6.667v1.458zm1.528-5.725a2.273 2.273 0 0 0 .694-1.667 2.841 2.841 0 0 0-.868-2.083 2.862 2.862 0 0 0-2.1-.868 2.86 2.86 0 0 0-2.1.867 2.844 2.844 0 0 0-.868 2.083h1.492a1.441 1.441 0 0 1 .434-1.059 1.468 1.468 0 0 1 2.084 0 1.439 1.439 0 0 1 .433 1.06 1.363 1.363 0 0 1-.451 1.042l-.9.938a2.841 2.841 0 0 0-.868 2.083v.382h1.49a3.044 3.044 0 0 1 .191-1.2 2.789 2.789 0 0 1 .677-.886z" transform="translate(0 -.104)"/>
</svg>
