<svg xmlns="http://www.w3.org/2000/svg" width="12.289" height="14.071" viewBox="0 0 12.289 14.071">
    <defs>
        <style>
            .cls-1{fill:#ddd}
        </style>
    </defs>
    <g id="termsPrivacy" transform="translate(-2.812 -.938)">
        <path id="Path_584" d="M8.438 13.125H3.75V1.875H7.5v2.813a.94.94 0 0 0 .938.938h2.813v1.406h.938V4.688a.427.427 0 0 0-.141-.328L8.767 1.079a.426.426 0 0 0-.329-.141H3.75a.94.94 0 0 0-.938.938v11.25a.94.94 0 0 0 .938.938h4.688zm0-11.063l2.625 2.625H8.438z" class="cls-1"/>
        <path id="Subtraction_3" d="M-4042.882-12413.99h-4.823a.468.468 0 0 1-.343-.141.455.455 0 0 1-.14-.34v-2.9a.468.468 0 0 1 .14-.34.482.482 0 0 1 .343-.141h.159v-.966a2.186 2.186 0 0 1 .664-1.587 2.187 2.187 0 0 1 1.587-.664 2.176 2.176 0 0 1 1.587.664 2.186 2.186 0 0 1 .664 1.587v.966h.162a.458.458 0 0 1 .34.141.468.468 0 0 1 .14.34v2.9a.437.437 0 0 1-.144.34.448.448 0 0 1-.336.141zm-2.307-3.07a.5.5 0 0 0-.5.5.5.5 0 0 0 .309.464l-.309 1.237h1l-.311-1.237a.5.5 0 0 0 .311-.464.5.5 0 0 0-.5-.501zm-.106-3.036a1.234 1.234 0 0 0-.907.377 1.233 1.233 0 0 0-.377.907v.966h2.572v-.966a1.239 1.239 0 0 0-.377-.907 1.226 1.226 0 0 0-.916-.381z" class="cls-1" transform="translate(4057.5 12428.999)"/>
    </g>
</svg>
