<svg xmlns="http://www.w3.org/2000/svg" width="13.125" height="13.126" viewBox="0 0 13.125 13.126">
    <defs>
        <style>
            .cls-1{fill:#ddd}
        </style>
    </defs>
    <g id="user-speaker" transform="translate(-.938 -.937)">
        <path id="Path_589" d="M13.788 8.906l-.8-.8a1.392 1.392 0 0 0 .141-.6 1.406 1.406 0 1 0-1.406 1.406 1.392 1.392 0 0 0 .6-.141l.8.8v3.556h-2.811v-1.408a3.285 3.285 0 0 0-3.281-3.281H4.219a3.285 3.285 0 0 0-3.281 3.281v2.344h13.125V9.57a.932.932 0 0 0-.275-.664zM1.875 11.719a2.347 2.347 0 0 1 2.344-2.344h2.813a2.347 2.347 0 0 1 2.344 2.344v1.406h-7.5z" class="cls-1"/>
        <path id="Path_590" d="M5.625 1.875a2.344 2.344 0 1 1-2.344 2.344 2.344 2.344 0 0 1 2.344-2.344m0-.938a3.281 3.281 0 1 0 3.281 3.281A3.281 3.281 0 0 0 5.625.937z" class="cls-1"/>
    </g>
</svg>
