<?xml version="1.0" standalone="no"?>
<!DOCTYPE svg PUBLIC "-//W3C//DTD SVG 20010904//EN"
 "http://www.w3.org/TR/2001/REC-SVG-20010904/DTD/svg10.dtd">
<svg version="1.0" xmlns="http://www.w3.org/2000/svg"
 width="700.000000pt" height="700.000000pt" viewBox="0 0 700.000000 700.000000"
 preserveAspectRatio="xMidYMid meet">
<metadata>
Created by potrace 1.11, written by Peter Selinger 2001-2013
</metadata>
<g transform="translate(0.000000,700.000000) scale(0.100000,-0.100000)"
fill="#000000" stroke="none">
<path d="M2298 5939 c-126 -18 -191 -79 -232 -219 -9 -30 -192 -1049 -407
-2265 -296 -1674 -389 -2221 -385 -2255 8 -56 31 -88 87 -120 l44 -25 1220 0
c944 0 1244 3 1325 13 879 109 1422 565 1545 1297 62 374 26 686 -106 913 -50
84 -209 239 -296 287 -40 22 -73 47 -73 55 0 9 17 24 37 35 50 27 176 122 240
182 276 259 425 650 410 1073 -12 338 -140 596 -386 778 -186 138 -427 221
-730 252 -124 12 -2207 12 -2293 -1z m1805 -1121 c70 -24 124 -65 155 -117 25
-43 27 -53 26 -161 0 -94 -5 -125 -23 -172 -50 -128 -150 -224 -279 -267 -58
-20 -83 -21 -458 -21 -313 0 -395 3 -391 13 2 6 33 178 67 380 l64 368 395 -3
c334 -3 404 -6 444 -20z m-311 -1847 c121 -11 183 -32 237 -77 81 -70 100
-149 76 -312 -25 -170 -85 -274 -200 -347 -108 -69 -107 -69 -630 -66 -258 1
-472 4 -473 6 -3 3 113 678 134 778 l6 27 376 0 c207 -1 421 -5 474 -9z"/>
</g>
</svg>
