<?xml version="1.0" encoding="UTF-8" standalone="no"?>
<!DOCTYPE svg PUBLIC "-//W3C//DTD SVG 1.1//EN"
 "http://www.w3.org/Graphics/SVG/1.1/DTD/svg11.dtd">
<!-- Generated by graphviz version 2.40.1 (20161225.0304)
 -->
<!-- Title: dependencies Pages: 1 -->
<svg width="5515pt" height="360pt"
 viewBox="0.00 0.00 5515.00 360.00" xmlns="http://www.w3.org/2000/svg" xmlns:xlink="http://www.w3.org/1999/xlink">
<g id="graph0" class="graph" transform="scale(1 1) rotate(0) translate(4 356)">
<title>dependencies</title>
<polygon fill="#ffffff" stroke="transparent" points="-4,4 -4,-356 5511,-356 5511,4 -4,4"/>
<text text-anchor="start" x="2732.5091" y="-42.4" font-family="sans-serif" font-weight="bold" font-size="14.00" fill="#000000">Legend</text>
<polygon fill="#ffffb3" stroke="transparent" points="2519.5,-10 2519.5,-30 2539.5,-30 2539.5,-10 2519.5,-10"/>
<text text-anchor="start" x="2543.129" y="-15.4" font-family="sans-serif" font-size="14.00" fill="#000000"> &#160;Declarations</text>
<polygon fill="#8dd3c7" stroke="transparent" points="2632.5,-10 2632.5,-30 2652.5,-30 2652.5,-10 2632.5,-10"/>
<text text-anchor="start" x="2656.2251" y="-15.4" font-family="sans-serif" font-size="14.00" fill="#000000"> &#160;Module</text>
<polygon fill="#80b1d3" stroke="transparent" points="2718.5,-10 2718.5,-30 2738.5,-30 2738.5,-10 2718.5,-10"/>
<text text-anchor="start" x="2742.2812" y="-15.4" font-family="sans-serif" font-size="14.00" fill="#000000"> &#160;Bootstrap</text>
<polygon fill="#fdb462" stroke="transparent" points="2815.5,-10 2815.5,-30 2835.5,-30 2835.5,-10 2815.5,-10"/>
<text text-anchor="start" x="2839.1732" y="-15.4" font-family="sans-serif" font-size="14.00" fill="#000000"> &#160;Providers</text>
<polygon fill="#fb8072" stroke="transparent" points="2911.5,-10 2911.5,-30 2931.5,-30 2931.5,-10 2911.5,-10"/>
<text text-anchor="start" x="2935.2258" y="-15.4" font-family="sans-serif" font-size="14.00" fill="#000000"> &#160;Exports</text>
<g id="clust1" class="cluster">
<title>cluster_AppModule</title>
<polygon fill="none" stroke="#000000" stroke-dasharray="1,5" points="3401,-146 3401,-344 3969,-344 3969,-146 3401,-146"/>
</g>
<g id="clust2" class="cluster">
<title>cluster_AppModule_declarations</title>
<polygon fill="none" stroke="#000000" points="3678,-154 3678,-206 3961,-206 3961,-154 3678,-154"/>
</g>
<g id="clust5" class="cluster">
<title>cluster_AppModule_imports</title>
<polygon fill="none" stroke="#000000" points="3409,-154 3409,-206 3670,-206 3670,-154 3409,-154"/>
</g>
<g id="clust7" class="cluster">
<title>cluster_AppModule_bootstrap</title>
<polygon fill="none" stroke="#000000" points="3616,-284 3616,-336 3740,-336 3740,-284 3616,-284"/>
</g>
<g id="clust15" class="cluster">
<title>cluster_CasinoModule</title>
<polygon fill="none" stroke="#000000" stroke-dasharray="1,5" points="5179,-70 5179,-206 5499,-206 5499,-70 5179,-70"/>
</g>
<g id="clust16" class="cluster">
<title>cluster_CasinoModule_declarations</title>
<polygon fill="none" stroke="#000000" points="5355,-78 5355,-130 5491,-130 5491,-78 5355,-78"/>
</g>
<g id="clust18" class="cluster">
<title>cluster_CasinoModule_imports</title>
<polygon fill="none" stroke="#000000" points="5187,-78 5187,-130 5347,-130 5347,-78 5187,-78"/>
</g>
<g id="clust28" class="cluster">
<title>cluster_HomeModule</title>
<polygon fill="none" stroke="#000000" stroke-dasharray="1,5" points="8,-146 8,-271 3393,-271 3393,-146 8,-146"/>
</g>
<g id="clust29" class="cluster">
<title>cluster_HomeModule_declarations</title>
<polygon fill="none" stroke="#000000" points="178,-154 178,-206 3385,-206 3385,-154 178,-154"/>
</g>
<g id="clust49" class="cluster">
<title>cluster_HomeModule_imports</title>
<polygon fill="none" stroke="#000000" points="16,-154 16,-206 170,-206 170,-154 16,-154"/>
</g>
<g id="clust59" class="cluster">
<title>cluster_SharedModule</title>
<polygon fill="none" stroke="#000000" stroke-dasharray="1,5" points="1755,-70 1755,-138 5171,-138 5171,-70 1755,-70"/>
</g>
<g id="clust60" class="cluster">
<title>cluster_SharedModule_declarations</title>
<polygon fill="none" stroke="#000000" points="3134,-78 3134,-130 5163,-130 5163,-78 3134,-78"/>
</g>
<g id="clust74" class="cluster">
<title>cluster_SharedModule_exports</title>
<polygon fill="none" stroke="#000000" points="1763,-78 1763,-130 3126,-130 3126,-78 1763,-78"/>
</g>
<!-- AppComponent -->
<g id="node1" class="node">
<title>AppComponent</title>
<polygon fill="#ffffb3" stroke="#000000" points="3952.9399,-198 3847.0601,-198 3847.0601,-162 3952.9399,-162 3952.9399,-198"/>
<text text-anchor="middle" x="3900" y="-175.8" font-family="Times,serif" font-size="14.00" fill="#000000">AppComponent</text>
</g>
<!-- AppModule -->
<g id="node3" class="node">
<title>AppModule</title>
<polygon fill="#8dd3c7" stroke="#000000" points="3719.6571,-263 3716.6571,-267 3695.6571,-267 3692.6571,-263 3636.3429,-263 3636.3429,-227 3719.6571,-227 3719.6571,-263"/>
<text text-anchor="middle" x="3678" y="-240.8" font-family="Times,serif" font-size="14.00" fill="#000000">AppModule</text>
</g>
<!-- AppComponent&#45;&gt;AppModule -->
<g id="edge1" class="edge">
<title>AppComponent&#45;&gt;AppModule</title>
<path fill="none" stroke="#000000" d="M3900,-198.1061C3900,-217.3391 3900,-245 3900,-245 3900,-245 3729.7565,-245 3729.7565,-245"/>
<polygon fill="#000000" stroke="#000000" points="3729.7565,-241.5001 3719.7565,-245 3729.7565,-248.5001 3729.7565,-241.5001"/>
</g>
<!-- NavigationComponent -->
<g id="node2" class="node">
<title>NavigationComponent</title>
<polygon fill="#ffffb3" stroke="#000000" points="3829.5407,-198 3686.4593,-198 3686.4593,-162 3829.5407,-162 3829.5407,-198"/>
<text text-anchor="middle" x="3758" y="-175.8" font-family="Times,serif" font-size="14.00" fill="#000000">NavigationComponent</text>
</g>
<!-- NavigationComponent&#45;&gt;AppModule -->
<g id="edge2" class="edge">
<title>NavigationComponent&#45;&gt;AppModule</title>
<path fill="none" stroke="#000000" d="M3703.0291,-198.1061C3703.0291,-198.1061 3703.0291,-216.991 3703.0291,-216.991"/>
<polygon fill="#000000" stroke="#000000" points="3699.5292,-216.9909 3703.0291,-226.991 3706.5292,-216.991 3699.5292,-216.9909"/>
</g>
<!-- AppComponent  -->
<g id="node6" class="node">
<title>AppComponent </title>
<polygon fill="#80b1d3" stroke="#000000" points="3732.439,-328 3623.561,-328 3623.561,-292 3732.439,-292 3732.439,-328"/>
<text text-anchor="middle" x="3678" y="-305.8" font-family="Times,serif" font-size="14.00" fill="#000000">AppComponent </text>
</g>
<!-- AppModule&#45;&gt;AppComponent  -->
<g id="edge5" class="edge">
<title>AppModule&#45;&gt;AppComponent </title>
<path fill="none" stroke="#000000" stroke-dasharray="1,5" d="M3678,-263.1061C3678,-263.1061 3678,-281.991 3678,-281.991"/>
<polygon fill="#000000" stroke="#000000" points="3674.5001,-281.9909 3678,-291.991 3681.5001,-281.991 3674.5001,-281.9909"/>
</g>
<!-- AppRoutingModule -->
<g id="node4" class="node">
<title>AppRoutingModule</title>
<polygon fill="#8dd3c7" stroke="#000000" points="3662.2744,-198 3659.2744,-202 3638.2744,-202 3635.2744,-198 3533.7256,-198 3533.7256,-162 3662.2744,-162 3662.2744,-198"/>
<text text-anchor="middle" x="3598" y="-175.8" font-family="Times,serif" font-size="14.00" fill="#000000">AppRoutingModule</text>
</g>
<!-- AppRoutingModule&#45;&gt;AppModule -->
<g id="edge3" class="edge">
<title>AppRoutingModule&#45;&gt;AppModule</title>
<path fill="none" stroke="#000000" d="M3649.2795,-198.1061C3649.2795,-198.1061 3649.2795,-216.991 3649.2795,-216.991"/>
<polygon fill="#000000" stroke="#000000" points="3645.7795,-216.9909 3649.2795,-226.991 3652.7795,-216.991 3645.7795,-216.9909"/>
</g>
<!-- SharedModule -->
<g id="node5" class="node">
<title>SharedModule</title>
<polygon fill="#8dd3c7" stroke="#000000" points="3515.4231,-198 3512.4231,-202 3491.4231,-202 3488.4231,-198 3416.5769,-198 3416.5769,-162 3515.4231,-162 3515.4231,-198"/>
<text text-anchor="middle" x="3466" y="-175.8" font-family="Times,serif" font-size="14.00" fill="#000000">SharedModule</text>
</g>
<!-- SharedModule&#45;&gt;AppModule -->
<g id="edge4" class="edge">
<title>SharedModule&#45;&gt;AppModule</title>
<path fill="none" stroke="#000000" d="M3482.4037,-198.0511C3482.4037,-212.373 3482.4037,-230 3482.4037,-230 3482.4037,-230 3626.0397,-230 3626.0397,-230"/>
<polygon fill="#000000" stroke="#000000" points="3626.0397,-233.5001 3636.0397,-230 3626.0397,-226.5001 3626.0397,-233.5001"/>
</g>
<!-- HomeModule -->
<g id="node29" class="node">
<title>HomeModule</title>
<polygon fill="#8dd3c7" stroke="#000000" points="1748.7619,-263 1745.7619,-267 1724.7619,-267 1721.7619,-263 1655.2381,-263 1655.2381,-227 1748.7619,-227 1748.7619,-263"/>
<text text-anchor="middle" x="1702" y="-240.8" font-family="Times,serif" font-size="14.00" fill="#000000">HomeModule</text>
</g>
<!-- SharedModule&#45;&gt;HomeModule -->
<g id="edge28" class="edge">
<title>SharedModule&#45;&gt;HomeModule</title>
<path fill="none" stroke="#000000" d="M3449.5963,-198.1532C3449.5963,-221.7566 3449.5963,-260 3449.5963,-260 3449.5963,-260 1759.1961,-260 1759.1961,-260"/>
<polygon fill="#000000" stroke="#000000" points="1759.1962,-256.5001 1749.1961,-260 1759.1961,-263.5001 1759.1962,-256.5001"/>
</g>
<!-- BetColumnComponent  -->
<g id="node43" class="node">
<title>BetColumnComponent </title>
<polygon fill="#fb8072" stroke="#000000" points="3117.8925,-122 2968.1075,-122 2968.1075,-86 3117.8925,-86 3117.8925,-122"/>
<text text-anchor="middle" x="3043" y="-99.8" font-family="Times,serif" font-size="14.00" fill="#000000">BetColumnComponent </text>
</g>
<!-- SharedModule&#45;&gt;BetColumnComponent  -->
<g id="edge41" class="edge">
<title>SharedModule&#45;&gt;BetColumnComponent </title>
<path fill="none" stroke="#000000" stroke-dasharray="5,2" d="M3448.0866,-161.7604C3448.0866,-146.4294 3448.0866,-127 3448.0866,-127 3448.0866,-127 3089.0745,-127 3089.0745,-127 3089.0745,-127 3089.0745,-126.5122 3089.0745,-126.5122"/>
<polygon fill="#000000" stroke="#000000" points="3092.5747,-132.1222 3089.0745,-122.1223 3085.5747,-132.1224 3092.5747,-132.1222"/>
</g>
<!-- BetSlipComponent  -->
<g id="node44" class="node">
<title>BetSlipComponent </title>
<polygon fill="#fb8072" stroke="#000000" points="2950.3381,-122 2823.6619,-122 2823.6619,-86 2950.3381,-86 2950.3381,-122"/>
<text text-anchor="middle" x="2887" y="-99.8" font-family="Times,serif" font-size="14.00" fill="#000000">BetSlipComponent </text>
</g>
<!-- SharedModule&#45;&gt;BetSlipComponent  -->
<g id="edge42" class="edge">
<title>SharedModule&#45;&gt;BetSlipComponent </title>
<path fill="none" stroke="#000000" stroke-dasharray="5,2" d="M3444.1744,-161.8757C3444.1744,-147.2168 3444.1744,-129 3444.1744,-129 3444.1744,-129 2908.1604,-129 2908.1604,-129 2908.1604,-129 2908.1604,-128.3169 2908.1604,-128.3169"/>
<polygon fill="#000000" stroke="#000000" points="2911.6606,-132.1686 2908.1604,-122.1686 2904.6606,-132.1687 2911.6606,-132.1686"/>
</g>
<!-- BetSlipSettingsComponent  -->
<g id="node45" class="node">
<title>BetSlipSettingsComponent </title>
<polygon fill="#fb8072" stroke="#000000" points="2805.9516,-122 2634.0484,-122 2634.0484,-86 2805.9516,-86 2805.9516,-122"/>
<text text-anchor="middle" x="2720" y="-99.8" font-family="Times,serif" font-size="14.00" fill="#000000">BetSlipSettingsComponent </text>
</g>
<!-- SharedModule&#45;&gt;BetSlipSettingsComponent  -->
<g id="edge43" class="edge">
<title>SharedModule&#45;&gt;BetSlipSettingsComponent </title>
<path fill="none" stroke="#000000" stroke-dasharray="5,2" d="M3440.2622,-161.7542C3440.2622,-147.8228 3440.2622,-131 3440.2622,-131 3440.2622,-131 2747.2155,-131 2747.2155,-131 2747.2155,-131 2747.2155,-130.1159 2747.2155,-130.1159"/>
<polygon fill="#000000" stroke="#000000" points="2750.7156,-132.1591 2747.2155,-122.1592 2743.7156,-132.1592 2750.7156,-132.1591"/>
</g>
<!-- BreadcrumbsComponent  -->
<g id="node46" class="node">
<title>BreadcrumbsComponent </title>
<polygon fill="#fb8072" stroke="#000000" points="2615.9699,-122 2456.0301,-122 2456.0301,-86 2615.9699,-86 2615.9699,-122"/>
<text text-anchor="middle" x="2536" y="-99.8" font-family="Times,serif" font-size="14.00" fill="#000000">BreadcrumbsComponent </text>
</g>
<!-- SharedModule&#45;&gt;BreadcrumbsComponent  -->
<g id="edge44" class="edge">
<title>SharedModule&#45;&gt;BreadcrumbsComponent </title>
<path fill="none" stroke="#000000" stroke-dasharray="5,2" d="M3436.35,-161.963C3436.35,-148.7087 3436.35,-133 3436.35,-133 3436.35,-133 2577.7898,-133 2577.7898,-133 2577.7898,-133 2577.7898,-131.9201 2577.7898,-131.9201"/>
<polygon fill="#000000" stroke="#000000" points="2581.2899,-132.2014 2577.7898,-122.2015 2574.2899,-132.2015 2581.2899,-132.2014"/>
</g>
<!-- LeftColumnNavComponent  -->
<g id="node47" class="node">
<title>LeftColumnNavComponent </title>
<polygon fill="#fb8072" stroke="#000000" points="2438.0903,-122 2261.9097,-122 2261.9097,-86 2438.0903,-86 2438.0903,-122"/>
<text text-anchor="middle" x="2350" y="-99.8" font-family="Times,serif" font-size="14.00" fill="#000000">LeftColumnNavComponent </text>
</g>
<!-- SharedModule&#45;&gt;LeftColumnNavComponent  -->
<g id="edge45" class="edge">
<title>SharedModule&#45;&gt;LeftColumnNavComponent </title>
<path fill="none" stroke="#000000" stroke-dasharray="5,2" d="M3432.4378,-161.9561C3432.4378,-149.4367 3432.4378,-135 3432.4378,-135 3432.4378,-135 2392.9876,-135 2392.9876,-135 2392.9876,-135 2392.9876,-132.0328 2392.9876,-132.0328"/>
<polygon fill="#000000" stroke="#000000" points="2396.4876,-132.0328 2392.9876,-122.0328 2389.4876,-132.0329 2396.4876,-132.0328"/>
</g>
<!-- MyBetsComponent  -->
<g id="node48" class="node">
<title>MyBetsComponent </title>
<polygon fill="#fb8072" stroke="#000000" points="2243.6635,-122 2114.3365,-122 2114.3365,-86 2243.6635,-86 2243.6635,-122"/>
<text text-anchor="middle" x="2179" y="-99.8" font-family="Times,serif" font-size="14.00" fill="#000000">MyBetsComponent </text>
</g>
<!-- SharedModule&#45;&gt;MyBetsComponent  -->
<g id="edge46" class="edge">
<title>SharedModule&#45;&gt;MyBetsComponent </title>
<path fill="none" stroke="#000000" stroke-dasharray="5,2" d="M3428.5256,-161.5146C3428.5256,-149.8601 3428.5256,-137 3428.5256,-137 3428.5256,-137 2196.766,-137 2196.766,-137 2196.766,-137 2196.766,-132.0449 2196.766,-132.0449"/>
<polygon fill="#000000" stroke="#000000" points="2200.266,-132.0448 2196.766,-122.0449 2193.266,-132.0449 2200.266,-132.0448"/>
</g>
<!-- OhbSelectComponent  -->
<g id="node49" class="node">
<title>OhbSelectComponent </title>
<polygon fill="#fb8072" stroke="#000000" points="2096.6467,-122 1953.3533,-122 1953.3533,-86 2096.6467,-86 2096.6467,-122"/>
<text text-anchor="middle" x="2025" y="-99.8" font-family="Times,serif" font-size="14.00" fill="#000000">OhbSelectComponent </text>
</g>
<!-- SharedModule&#45;&gt;OhbSelectComponent  -->
<g id="edge47" class="edge">
<title>SharedModule&#45;&gt;OhbSelectComponent </title>
<path fill="none" stroke="#000000" stroke-dasharray="5,2" d="M3424.6133,-161.8975C3424.6133,-150.9141 3424.6133,-139 3424.6133,-139 3424.6133,-139 2037.1797,-139 2037.1797,-139 2037.1797,-139 2037.1797,-132.32 2037.1797,-132.32"/>
<polygon fill="#000000" stroke="#000000" points="2040.6798,-132.32 2037.1797,-122.32 2033.6798,-132.3201 2040.6798,-132.32"/>
</g>
<!-- StakeNumpadComponent  -->
<g id="node50" class="node">
<title>StakeNumpadComponent </title>
<polygon fill="#fb8072" stroke="#000000" points="1935.1467,-122 1770.8533,-122 1770.8533,-86 1935.1467,-86 1935.1467,-122"/>
<text text-anchor="middle" x="1853" y="-99.8" font-family="Times,serif" font-size="14.00" fill="#000000">StakeNumpadComponent </text>
</g>
<!-- SharedModule&#45;&gt;StakeNumpadComponent  -->
<g id="edge48" class="edge">
<title>SharedModule&#45;&gt;StakeNumpadComponent </title>
<path fill="none" stroke="#000000" stroke-dasharray="5,2" d="M3420.7011,-161.8701C3420.7011,-151.6855 3420.7011,-141 3420.7011,-141 3420.7011,-141 1856.4269,-141 1856.4269,-141 1856.4269,-141 1856.4269,-132.0664 1856.4269,-132.0664"/>
<polygon fill="#000000" stroke="#000000" points="1859.927,-132.0664 1856.4269,-122.0664 1852.927,-132.0665 1859.927,-132.0664"/>
</g>
<!-- CasinoComponent -->
<g id="node7" class="node">
<title>CasinoComponent</title>
<polygon fill="#ffffb3" stroke="#000000" points="5483.219,-122 5362.781,-122 5362.781,-86 5483.219,-86 5483.219,-122"/>
<text text-anchor="middle" x="5423" y="-99.8" font-family="Times,serif" font-size="14.00" fill="#000000">CasinoComponent</text>
</g>
<!-- CasinoModule -->
<g id="node8" class="node">
<title>CasinoModule</title>
<polygon fill="#8dd3c7" stroke="#000000" points="5394.4372,-198 5391.4372,-202 5370.4372,-202 5367.4372,-198 5295.5628,-198 5295.5628,-162 5394.4372,-162 5394.4372,-198"/>
<text text-anchor="middle" x="5345" y="-175.8" font-family="Times,serif" font-size="14.00" fill="#000000">CasinoModule</text>
</g>
<!-- CasinoComponent&#45;&gt;CasinoModule -->
<g id="edge6" class="edge">
<title>CasinoComponent&#45;&gt;CasinoModule</title>
<path fill="none" stroke="#000000" d="M5378.5544,-122.0109C5378.5544,-122.0109 5378.5544,-151.855 5378.5544,-151.855"/>
<polygon fill="#000000" stroke="#000000" points="5375.0544,-151.8549 5378.5544,-161.855 5382.0544,-151.855 5375.0544,-151.8549"/>
</g>
<!-- CasinoRoutingModule -->
<g id="node9" class="node">
<title>CasinoRoutingModule</title>
<polygon fill="#8dd3c7" stroke="#000000" points="5338.5547,-122 5335.5547,-126 5314.5547,-126 5311.5547,-122 5195.4453,-122 5195.4453,-86 5338.5547,-86 5338.5547,-122"/>
<text text-anchor="middle" x="5267" y="-99.8" font-family="Times,serif" font-size="14.00" fill="#000000">CasinoRoutingModule</text>
</g>
<!-- CasinoRoutingModule&#45;&gt;CasinoModule -->
<g id="edge7" class="edge">
<title>CasinoRoutingModule&#45;&gt;CasinoModule</title>
<path fill="none" stroke="#000000" d="M5317.2795,-122.0109C5317.2795,-122.0109 5317.2795,-151.855 5317.2795,-151.855"/>
<polygon fill="#000000" stroke="#000000" points="5313.7795,-151.8549 5317.2795,-161.855 5320.7795,-151.855 5313.7795,-151.8549"/>
</g>
<!-- AsianHandicapComponent -->
<g id="node10" class="node">
<title>AsianHandicapComponent</title>
<polygon fill="#ffffb3" stroke="#000000" points="3376.6302,-198 3209.3698,-198 3209.3698,-162 3376.6302,-162 3376.6302,-198"/>
<text text-anchor="middle" x="3293" y="-175.8" font-family="Times,serif" font-size="14.00" fill="#000000">AsianHandicapComponent</text>
</g>
<!-- AsianHandicapComponent&#45;&gt;HomeModule -->
<g id="edge8" class="edge">
<title>AsianHandicapComponent&#45;&gt;HomeModule</title>
<path fill="none" stroke="#000000" d="M3293,-198.2479C3293,-221.0179 3293,-257 3293,-257 3293,-257 1759.1838,-257 1759.1838,-257"/>
<polygon fill="#000000" stroke="#000000" points="1759.1839,-253.5001 1749.1838,-257 1759.1838,-260.5001 1759.1839,-253.5001"/>
</g>
<!-- CarouselComponent -->
<g id="node11" class="node">
<title>CarouselComponent</title>
<polygon fill="#ffffb3" stroke="#000000" points="3191.594,-198 3060.406,-198 3060.406,-162 3191.594,-162 3191.594,-198"/>
<text text-anchor="middle" x="3126" y="-175.8" font-family="Times,serif" font-size="14.00" fill="#000000">CarouselComponent</text>
</g>
<!-- CarouselComponent&#45;&gt;HomeModule -->
<g id="edge9" class="edge">
<title>CarouselComponent&#45;&gt;HomeModule</title>
<path fill="none" stroke="#000000" d="M3126,-198.2921C3126,-220.2057 3126,-254 3126,-254 3126,-254 1758.9734,-254 1758.9734,-254"/>
<polygon fill="#000000" stroke="#000000" points="1758.9735,-250.5001 1748.9734,-254 1758.9734,-257.5001 1758.9735,-250.5001"/>
</g>
<!-- CarouselCounterComponent -->
<g id="node12" class="node">
<title>CarouselCounterComponent</title>
<polygon fill="#ffffb3" stroke="#000000" points="3042.1965,-198 2865.8035,-198 2865.8035,-162 3042.1965,-162 3042.1965,-198"/>
<text text-anchor="middle" x="2954" y="-175.8" font-family="Times,serif" font-size="14.00" fill="#000000">CarouselCounterComponent</text>
</g>
<!-- CarouselCounterComponent&#45;&gt;HomeModule -->
<g id="edge10" class="edge">
<title>CarouselCounterComponent&#45;&gt;HomeModule</title>
<path fill="none" stroke="#000000" d="M2954,-198.2843C2954,-219.3211 2954,-251 2954,-251 2954,-251 1758.7949,-251 1758.7949,-251"/>
<polygon fill="#000000" stroke="#000000" points="1758.7949,-247.5001 1748.7949,-251 1758.7948,-254.5001 1758.7949,-247.5001"/>
</g>
<!-- CasinoGamesComponent -->
<g id="node13" class="node">
<title>CasinoGamesComponent</title>
<polygon fill="#ffffb3" stroke="#000000" points="2847.5898,-198 2688.4102,-198 2688.4102,-162 2847.5898,-162 2847.5898,-198"/>
<text text-anchor="middle" x="2768" y="-175.8" font-family="Times,serif" font-size="14.00" fill="#000000">CasinoGamesComponent</text>
</g>
<!-- CasinoGamesComponent&#45;&gt;HomeModule -->
<g id="edge11" class="edge">
<title>CasinoGamesComponent&#45;&gt;HomeModule</title>
<path fill="none" stroke="#000000" d="M2768,-198.2228C2768,-218.3652 2768,-248 2768,-248 2768,-248 1758.8346,-248 1758.8346,-248"/>
<polygon fill="#000000" stroke="#000000" points="1758.8346,-244.5001 1748.8346,-248 1758.8345,-251.5001 1758.8346,-244.5001"/>
</g>
<!-- FeaturedComponent -->
<g id="node14" class="node">
<title>FeaturedComponent</title>
<polygon fill="#ffffb3" stroke="#000000" points="2670.3104,-198 2539.6896,-198 2539.6896,-162 2670.3104,-162 2670.3104,-198"/>
<text text-anchor="middle" x="2605" y="-175.8" font-family="Times,serif" font-size="14.00" fill="#000000">FeaturedComponent</text>
</g>
<!-- FeaturedComponent&#45;&gt;HomeModule -->
<g id="edge12" class="edge">
<title>FeaturedComponent&#45;&gt;HomeModule</title>
<path fill="none" stroke="#000000" d="M2605,-198.1061C2605,-217.3391 2605,-245 2605,-245 2605,-245 1758.9623,-245 1758.9623,-245"/>
<polygon fill="#000000" stroke="#000000" points="1758.9623,-241.5001 1748.9623,-245 1758.9623,-248.5001 1758.9623,-241.5001"/>
</g>
<!-- FixturesMatchesComponent -->
<g id="node15" class="node">
<title>FixturesMatchesComponent</title>
<polygon fill="#ffffb3" stroke="#000000" points="2522.14,-198 2347.86,-198 2347.86,-162 2522.14,-162 2522.14,-198"/>
<text text-anchor="middle" x="2435" y="-175.8" font-family="Times,serif" font-size="14.00" fill="#000000">FixturesMatchesComponent</text>
</g>
<!-- FixturesMatchesComponent&#45;&gt;HomeModule -->
<g id="edge13" class="edge">
<title>FixturesMatchesComponent&#45;&gt;HomeModule</title>
<path fill="none" stroke="#000000" d="M2435,-198.2667C2435,-216.5552 2435,-242 2435,-242 2435,-242 1758.9675,-242 1758.9675,-242"/>
<polygon fill="#000000" stroke="#000000" points="1758.9675,-238.5001 1748.9675,-242 1758.9675,-245.5001 1758.9675,-238.5001"/>
</g>
<!-- FixturesOutrightsComponent -->
<g id="node16" class="node">
<title>FixturesOutrightsComponent</title>
<polygon fill="#ffffb3" stroke="#000000" points="2330.0996,-198 2149.9004,-198 2149.9004,-162 2330.0996,-162 2330.0996,-198"/>
<text text-anchor="middle" x="2240" y="-175.8" font-family="Times,serif" font-size="14.00" fill="#000000">FixturesOutrightsComponent</text>
</g>
<!-- FixturesOutrightsComponent&#45;&gt;HomeModule -->
<g id="edge14" class="edge">
<title>FixturesOutrightsComponent&#45;&gt;HomeModule</title>
<path fill="none" stroke="#000000" d="M2240,-198.0225C2240,-215.3734 2240,-239 2240,-239 2240,-239 1758.8028,-239 1758.8028,-239"/>
<polygon fill="#000000" stroke="#000000" points="1758.8029,-235.5001 1748.8028,-239 1758.8028,-242.5001 1758.8029,-235.5001"/>
</g>
<!-- FixturesPageComponent -->
<g id="node17" class="node">
<title>FixturesPageComponent</title>
<polygon fill="#ffffb3" stroke="#000000" points="2132.4284,-198 1977.5716,-198 1977.5716,-162 2132.4284,-162 2132.4284,-198"/>
<text text-anchor="middle" x="2055" y="-175.8" font-family="Times,serif" font-size="14.00" fill="#000000">FixturesPageComponent</text>
</g>
<!-- FixturesPageComponent&#45;&gt;HomeModule -->
<g id="edge15" class="edge">
<title>FixturesPageComponent&#45;&gt;HomeModule</title>
<path fill="none" stroke="#000000" d="M2055,-198.027C2055,-214.3976 2055,-236 2055,-236 2055,-236 1758.8757,-236 1758.8757,-236"/>
<polygon fill="#000000" stroke="#000000" points="1758.8757,-232.5001 1748.8757,-236 1758.8756,-239.5001 1758.8757,-232.5001"/>
</g>
<!-- FixturesStandingsComponent -->
<g id="node18" class="node">
<title>FixturesStandingsComponent</title>
<polygon fill="#ffffb3" stroke="#000000" points="1960.4395,-198 1777.5605,-198 1777.5605,-162 1960.4395,-162 1960.4395,-198"/>
<text text-anchor="middle" x="1869" y="-175.8" font-family="Times,serif" font-size="14.00" fill="#000000">FixturesStandingsComponent</text>
</g>
<!-- FixturesStandingsComponent&#45;&gt;HomeModule -->
<g id="edge16" class="edge">
<title>FixturesStandingsComponent&#45;&gt;HomeModule</title>
<path fill="none" stroke="#000000" d="M1869,-198.2396C1869,-213.5706 1869,-233 1869,-233 1869,-233 1758.9632,-233 1758.9632,-233"/>
<polygon fill="#000000" stroke="#000000" points="1758.9633,-229.5001 1748.9632,-233 1758.9632,-236.5001 1758.9633,-229.5001"/>
</g>
<!-- HomeComponent -->
<g id="node19" class="node">
<title>HomeComponent</title>
<polygon fill="#ffffb3" stroke="#000000" points="1759.5451,-198 1644.4549,-198 1644.4549,-162 1759.5451,-162 1759.5451,-198"/>
<text text-anchor="middle" x="1702" y="-175.8" font-family="Times,serif" font-size="14.00" fill="#000000">HomeComponent</text>
</g>
<!-- HomeComponent&#45;&gt;HomeModule -->
<g id="edge17" class="edge">
<title>HomeComponent&#45;&gt;HomeModule</title>
<path fill="none" stroke="#000000" d="M1702,-198.1061C1702,-198.1061 1702,-216.991 1702,-216.991"/>
<polygon fill="#000000" stroke="#000000" points="1698.5001,-216.9909 1702,-226.991 1705.5001,-216.991 1698.5001,-216.9909"/>
</g>
<!-- InPlayBannerComponent -->
<g id="node20" class="node">
<title>InPlayBannerComponent</title>
<polygon fill="#ffffb3" stroke="#000000" points="1626.3075,-198 1467.6925,-198 1467.6925,-162 1626.3075,-162 1626.3075,-198"/>
<text text-anchor="middle" x="1547" y="-175.8" font-family="Times,serif" font-size="14.00" fill="#000000">InPlayBannerComponent</text>
</g>
<!-- InPlayBannerComponent&#45;&gt;HomeModule -->
<g id="edge18" class="edge">
<title>InPlayBannerComponent&#45;&gt;HomeModule</title>
<path fill="none" stroke="#000000" d="M1547,-198.1243C1547,-212.7832 1547,-231 1547,-231 1547,-231 1645.0743,-231 1645.0743,-231"/>
<polygon fill="#000000" stroke="#000000" points="1645.0743,-234.5001 1655.0743,-231 1645.0742,-227.5001 1645.0743,-234.5001"/>
</g>
<!-- InPlayComponent -->
<g id="node21" class="node">
<title>InPlayComponent</title>
<polygon fill="#ffffb3" stroke="#000000" points="1449.8809,-198 1332.1191,-198 1332.1191,-162 1449.8809,-162 1449.8809,-198"/>
<text text-anchor="middle" x="1391" y="-175.8" font-family="Times,serif" font-size="14.00" fill="#000000">InPlayComponent</text>
</g>
<!-- InPlayComponent&#45;&gt;HomeModule -->
<g id="edge19" class="edge">
<title>InPlayComponent&#45;&gt;HomeModule</title>
<path fill="none" stroke="#000000" d="M1391,-198.2819C1391,-213.9478 1391,-234 1391,-234 1391,-234 1645.1034,-234 1645.1034,-234"/>
<polygon fill="#000000" stroke="#000000" points="1645.1035,-237.5001 1655.1034,-234 1645.1034,-230.5001 1645.1035,-237.5001"/>
</g>
<!-- InPlayPageComponent -->
<g id="node22" class="node">
<title>InPlayPageComponent</title>
<polygon fill="#ffffb3" stroke="#000000" points="1314.5926,-198 1169.4074,-198 1169.4074,-162 1314.5926,-162 1314.5926,-198"/>
<text text-anchor="middle" x="1242" y="-175.8" font-family="Times,serif" font-size="14.00" fill="#000000">InPlayPageComponent</text>
</g>
<!-- InPlayPageComponent&#45;&gt;HomeModule -->
<g id="edge20" class="edge">
<title>InPlayPageComponent&#45;&gt;HomeModule</title>
<path fill="none" stroke="#000000" d="M1242,-198.0352C1242,-214.7344 1242,-237 1242,-237 1242,-237 1644.9337,-237 1644.9337,-237"/>
<polygon fill="#000000" stroke="#000000" points="1644.9337,-240.5001 1654.9337,-237 1644.9337,-233.5001 1644.9337,-240.5001"/>
</g>
<!-- LiveEventComponent -->
<g id="node23" class="node">
<title>LiveEventComponent</title>
<polygon fill="#ffffb3" stroke="#000000" points="1151.6484,-198 1012.3516,-198 1012.3516,-162 1151.6484,-162 1151.6484,-198"/>
<text text-anchor="middle" x="1082" y="-175.8" font-family="Times,serif" font-size="14.00" fill="#000000">LiveEventComponent</text>
</g>
<!-- LiveEventComponent&#45;&gt;HomeModule -->
<g id="edge21" class="edge">
<title>LiveEventComponent&#45;&gt;HomeModule</title>
<path fill="none" stroke="#000000" d="M1082,-198.302C1082,-216.2699 1082,-241 1082,-241 1082,-241 1645.1451,-241 1645.1451,-241"/>
<polygon fill="#000000" stroke="#000000" points="1645.1451,-244.5001 1655.1451,-241 1645.145,-237.5001 1645.1451,-244.5001"/>
</g>
<!-- MatchResultsComponent -->
<g id="node24" class="node">
<title>MatchResultsComponent</title>
<polygon fill="#ffffb3" stroke="#000000" points="994.3187,-198 835.6813,-198 835.6813,-162 994.3187,-162 994.3187,-198"/>
<text text-anchor="middle" x="915" y="-175.8" font-family="Times,serif" font-size="14.00" fill="#000000">MatchResultsComponent</text>
</g>
<!-- MatchResultsComponent&#45;&gt;HomeModule -->
<g id="edge22" class="edge">
<title>MatchResultsComponent&#45;&gt;HomeModule</title>
<path fill="none" stroke="#000000" d="M915,-198.1686C915,-217.0898 915,-244 915,-244 915,-244 1645.1264,-244 1645.1264,-244"/>
<polygon fill="#000000" stroke="#000000" points="1645.1265,-247.5001 1655.1264,-244 1645.1264,-240.5001 1645.1265,-247.5001"/>
</g>
<!-- PopularBetsComponent -->
<g id="node25" class="node">
<title>PopularBetsComponent</title>
<polygon fill="#ffffb3" stroke="#000000" points="817.7674,-198 668.2326,-198 668.2326,-162 817.7674,-162 817.7674,-198"/>
<text text-anchor="middle" x="743" y="-175.8" font-family="Times,serif" font-size="14.00" fill="#000000">PopularBetsComponent</text>
</g>
<!-- PopularBetsComponent&#45;&gt;HomeModule -->
<g id="edge23" class="edge">
<title>PopularBetsComponent&#45;&gt;HomeModule</title>
<path fill="none" stroke="#000000" d="M743,-198.308C743,-218.1455 743,-247 743,-247 743,-247 1645.0962,-247 1645.0962,-247"/>
<polygon fill="#000000" stroke="#000000" points="1645.0963,-250.5001 1655.0962,-247 1645.0962,-243.5001 1645.0963,-250.5001"/>
</g>
<!-- SportsPageComponent -->
<g id="node26" class="node">
<title>SportsPageComponent</title>
<polygon fill="#ffffb3" stroke="#000000" points="650.323,-198 505.677,-198 505.677,-162 650.323,-162 650.323,-198"/>
<text text-anchor="middle" x="578" y="-175.8" font-family="Times,serif" font-size="14.00" fill="#000000">SportsPageComponent</text>
</g>
<!-- SportsPageComponent&#45;&gt;HomeModule -->
<g id="edge24" class="edge">
<title>SportsPageComponent&#45;&gt;HomeModule</title>
<path fill="none" stroke="#000000" d="M578,-198.0267C578,-218.7672 578,-250 578,-250 578,-250 1645.1341,-250 1645.1341,-250"/>
<polygon fill="#000000" stroke="#000000" points="1645.1342,-253.5001 1655.1341,-250 1645.1341,-246.5001 1645.1342,-253.5001"/>
</g>
<!-- TotalGoalsComponent -->
<g id="node27" class="node">
<title>TotalGoalsComponent</title>
<polygon fill="#ffffb3" stroke="#000000" points="487.5379,-198 344.4621,-198 344.4621,-162 487.5379,-162 487.5379,-198"/>
<text text-anchor="middle" x="416" y="-175.8" font-family="Times,serif" font-size="14.00" fill="#000000">TotalGoalsComponent</text>
</g>
<!-- TotalGoalsComponent&#45;&gt;HomeModule -->
<g id="edge25" class="edge">
<title>TotalGoalsComponent&#45;&gt;HomeModule</title>
<path fill="none" stroke="#000000" d="M416,-198.2921C416,-220.2057 416,-254 416,-254 416,-254 1645.0888,-254 1645.0888,-254"/>
<polygon fill="#000000" stroke="#000000" points="1645.0889,-257.5001 1655.0888,-254 1645.0888,-250.5001 1645.0889,-257.5001"/>
</g>
<!-- UpcomingComponent -->
<g id="node28" class="node">
<title>UpcomingComponent</title>
<polygon fill="#ffffb3" stroke="#000000" points="326.4355,-198 185.5645,-198 185.5645,-162 326.4355,-162 326.4355,-198"/>
<text text-anchor="middle" x="256" y="-175.8" font-family="Times,serif" font-size="14.00" fill="#000000">UpcomingComponent</text>
</g>
<!-- UpcomingComponent&#45;&gt;HomeModule -->
<g id="edge26" class="edge">
<title>UpcomingComponent&#45;&gt;HomeModule</title>
<path fill="none" stroke="#000000" d="M256,-198.2479C256,-221.0179 256,-257 256,-257 256,-257 1645.1197,-257 1645.1197,-257"/>
<polygon fill="#000000" stroke="#000000" points="1645.1198,-260.5001 1655.1197,-257 1645.1197,-253.5001 1645.1198,-260.5001"/>
</g>
<!-- HomeRoutingModule -->
<g id="node30" class="node">
<title>HomeRoutingModule</title>
<polygon fill="#8dd3c7" stroke="#000000" points="162.3795,-198 159.3795,-202 138.3795,-202 135.3795,-198 23.6205,-198 23.6205,-162 162.3795,-162 162.3795,-198"/>
<text text-anchor="middle" x="93" y="-175.8" font-family="Times,serif" font-size="14.00" fill="#000000">HomeRoutingModule</text>
</g>
<!-- HomeRoutingModule&#45;&gt;HomeModule -->
<g id="edge27" class="edge">
<title>HomeRoutingModule&#45;&gt;HomeModule</title>
<path fill="none" stroke="#000000" d="M93,-198.1532C93,-221.7566 93,-260 93,-260 93,-260 1645.1499,-260 1645.1499,-260"/>
<polygon fill="#000000" stroke="#000000" points="1645.15,-263.5001 1655.1499,-260 1645.1499,-256.5001 1645.15,-263.5001"/>
</g>
<!-- BetColumnComponent -->
<g id="node31" class="node">
<title>BetColumnComponent</title>
<polygon fill="#ffffb3" stroke="#000000" points="5154.892,-122 5009.108,-122 5009.108,-86 5154.892,-86 5154.892,-122"/>
<text text-anchor="middle" x="5082" y="-99.8" font-family="Times,serif" font-size="14.00" fill="#000000">BetColumnComponent</text>
</g>
<!-- BetColumnComponent&#45;&gt;SharedModule -->
<g id="edge29" class="edge">
<title>BetColumnComponent&#45;&gt;SharedModule</title>
<path fill="none" stroke="#000000" d="M5082,-122.027C5082,-138.3976 5082,-160 5082,-160 5082,-160 3511.8436,-160 3511.8436,-160 3511.8436,-160 3511.8436,-160.1846 3511.8436,-160.1846"/>
<polygon fill="#000000" stroke="#000000" points="3508.3442,-151.8455 3511.8436,-161.8457 3515.3442,-151.8459 3508.3442,-151.8455"/>
</g>
<!-- BetSlipComponent -->
<g id="node32" class="node">
<title>BetSlipComponent</title>
<polygon fill="#ffffb3" stroke="#000000" points="4990.8385,-122 4867.1615,-122 4867.1615,-86 4990.8385,-86 4990.8385,-122"/>
<text text-anchor="middle" x="4929" y="-99.8" font-family="Times,serif" font-size="14.00" fill="#000000">BetSlipComponent</text>
</g>
<!-- BetSlipComponent&#45;&gt;SharedModule -->
<g id="edge30" class="edge">
<title>BetSlipComponent&#45;&gt;SharedModule</title>
<path fill="none" stroke="#000000" d="M4929,-122.2819C4929,-137.9478 4929,-158 4929,-158 4929,-158 3508.476,-158 3508.476,-158 3508.476,-158 3508.476,-158.3832 3508.476,-158.3832"/>
<polygon fill="#000000" stroke="#000000" points="3504.9763,-151.832 3508.476,-161.8321 3511.9763,-151.8322 3504.9763,-151.832"/>
</g>
<!-- BetSlipMultiComponent -->
<g id="node33" class="node">
<title>BetSlipMultiComponent</title>
<polygon fill="#ffffb3" stroke="#000000" points="4849.4551,-122 4694.5449,-122 4694.5449,-86 4849.4551,-86 4849.4551,-122"/>
<text text-anchor="middle" x="4772" y="-99.8" font-family="Times,serif" font-size="14.00" fill="#000000">BetSlipMultiComponent</text>
</g>
<!-- BetSlipMultiComponent&#45;&gt;SharedModule -->
<g id="edge31" class="edge">
<title>BetSlipMultiComponent&#45;&gt;SharedModule</title>
<path fill="none" stroke="#000000" d="M4772,-122.1871C4772,-137.1824 4772,-156 4772,-156 4772,-156 3505.1085,-156 3505.1085,-156 3505.1085,-156 3505.1085,-156.581 3505.1085,-156.581"/>
<polygon fill="#000000" stroke="#000000" points="3501.6087,-151.8097 3505.1085,-161.8097 3508.6087,-151.8098 3501.6087,-151.8097"/>
</g>
<!-- BetSlipSettingsComponent -->
<g id="node34" class="node">
<title>BetSlipSettingsComponent</title>
<polygon fill="#ffffb3" stroke="#000000" points="4677.4522,-122 4508.5478,-122 4508.5478,-86 4677.4522,-86 4677.4522,-122"/>
<text text-anchor="middle" x="4593" y="-99.8" font-family="Times,serif" font-size="14.00" fill="#000000">BetSlipSettingsComponent</text>
</g>
<!-- BetSlipSettingsComponent&#45;&gt;SharedModule -->
<g id="edge32" class="edge">
<title>BetSlipSettingsComponent&#45;&gt;SharedModule</title>
<path fill="none" stroke="#000000" d="M4593,-122.0511C4593,-136.373 4593,-154 4593,-154 4593,-154 3501.741,-154 3501.741,-154 3501.741,-154 3501.741,-154.7942 3501.741,-154.7942"/>
<polygon fill="#000000" stroke="#000000" points="3498.2411,-151.9421 3501.741,-161.9421 3505.2411,-151.9422 3498.2411,-151.9421"/>
</g>
<!-- BetSlipSingleComponent -->
<g id="node35" class="node">
<title>BetSlipSingleComponent</title>
<polygon fill="#ffffb3" stroke="#000000" points="4490.6164,-122 4331.3836,-122 4331.3836,-86 4490.6164,-86 4490.6164,-122"/>
<text text-anchor="middle" x="4411" y="-99.8" font-family="Times,serif" font-size="14.00" fill="#000000">BetSlipSingleComponent</text>
</g>
<!-- BetSlipSingleComponent&#45;&gt;SharedModule -->
<g id="edge33" class="edge">
<title>BetSlipSingleComponent&#45;&gt;SharedModule</title>
<path fill="none" stroke="#000000" d="M4411,-122.1467C4411,-135.7395 4411,-152 4411,-152 4411,-152 3498.3735,-152 3498.3735,-152 3498.3735,-152 3498.3735,-152.9793 3498.3735,-152.9793"/>
<polygon fill="#000000" stroke="#000000" points="3494.8736,-151.793 3498.3735,-161.793 3501.8736,-151.7931 3494.8736,-151.793"/>
</g>
<!-- BetSlipSystemComponent -->
<g id="node36" class="node">
<title>BetSlipSystemComponent</title>
<polygon fill="#ffffb3" stroke="#000000" points="4313.0616,-122 4148.9384,-122 4148.9384,-86 4313.0616,-86 4313.0616,-122"/>
<text text-anchor="middle" x="4231" y="-99.8" font-family="Times,serif" font-size="14.00" fill="#000000">BetSlipSystemComponent</text>
</g>
<!-- BetSlipSystemComponent&#45;&gt;SharedModule -->
<g id="edge34" class="edge">
<title>BetSlipSystemComponent&#45;&gt;SharedModule</title>
<path fill="none" stroke="#000000" d="M4231,-122.1804C4231,-135.0382 4231,-150 4231,-150 4231,-150 3495.0059,-150 3495.0059,-150 3495.0059,-150 3495.0059,-151.8568 3495.0059,-151.8568"/>
<polygon fill="#000000" stroke="#000000" points="3491.506,-151.8568 3495.0059,-161.8568 3498.506,-151.8568 3491.506,-151.8568"/>
</g>
<!-- BreadcrumbNamePipe -->
<g id="node37" class="node">
<title>BreadcrumbNamePipe</title>
<polygon fill="#ffffb3" stroke="#000000" points="4130.5072,-122 3987.4928,-122 3987.4928,-86 4130.5072,-86 4130.5072,-122"/>
<text text-anchor="middle" x="4059" y="-99.8" font-family="Times,serif" font-size="14.00" fill="#000000">BreadcrumbNamePipe</text>
</g>
<!-- BreadcrumbNamePipe&#45;&gt;SharedModule -->
<g id="edge35" class="edge">
<title>BreadcrumbNamePipe&#45;&gt;SharedModule</title>
<path fill="none" stroke="#000000" d="M4059,-122.1505C4059,-134.2708 4059,-148 4059,-148 4059,-148 3491.6384,-148 3491.6384,-148 3491.6384,-148 3491.6384,-151.7566 3491.6384,-151.7566"/>
<polygon fill="#000000" stroke="#000000" points="3488.1385,-151.7566 3491.6384,-161.7566 3495.1385,-151.7566 3488.1385,-151.7566"/>
</g>
<!-- BreadcrumbsComponent -->
<g id="node38" class="node">
<title>BreadcrumbsComponent</title>
<polygon fill="#ffffb3" stroke="#000000" points="3968.9692,-122 3813.0308,-122 3813.0308,-86 3968.9692,-86 3968.9692,-122"/>
<text text-anchor="middle" x="3891" y="-99.8" font-family="Times,serif" font-size="14.00" fill="#000000">BreadcrumbsComponent</text>
</g>
<!-- BreadcrumbsComponent&#45;&gt;SharedModule -->
<g id="edge36" class="edge">
<title>BreadcrumbsComponent&#45;&gt;SharedModule</title>
<path fill="none" stroke="#000000" d="M3821.3927,-122.0555C3821.3927,-133.439 3821.3927,-146 3821.3927,-146 3821.3927,-146 3488.2709,-146 3488.2709,-146 3488.2709,-146 3488.2709,-151.8056 3488.2709,-151.8056"/>
<polygon fill="#000000" stroke="#000000" points="3484.771,-151.8055 3488.2709,-161.8056 3491.771,-151.8056 3484.771,-151.8055"/>
</g>
<!-- LeftColumnNavComponent -->
<g id="node39" class="node">
<title>LeftColumnNavComponent</title>
<polygon fill="#ffffb3" stroke="#000000" points="3794.5898,-122 3621.4102,-122 3621.4102,-86 3794.5898,-86 3794.5898,-122"/>
<text text-anchor="middle" x="3708" y="-99.8" font-family="Times,serif" font-size="14.00" fill="#000000">LeftColumnNavComponent</text>
</g>
<!-- LeftColumnNavComponent&#45;&gt;SharedModule -->
<g id="edge37" class="edge">
<title>LeftColumnNavComponent&#45;&gt;SharedModule</title>
<path fill="none" stroke="#000000" d="M3641.9211,-122.1274C3641.9211,-132.7109 3641.9211,-144 3641.9211,-144 3641.9211,-144 3484.9034,-144 3484.9034,-144 3484.9034,-144 3484.9034,-151.5782 3484.9034,-151.5782"/>
<polygon fill="#000000" stroke="#000000" points="3481.4035,-151.5781 3484.9034,-161.5782 3488.4035,-151.5782 3481.4035,-151.5781"/>
</g>
<!-- MyBetsComponent -->
<g id="node40" class="node">
<title>MyBetsComponent</title>
<polygon fill="#ffffb3" stroke="#000000" points="3603.6638,-122 3478.3362,-122 3478.3362,-86 3603.6638,-86 3603.6638,-122"/>
<text text-anchor="middle" x="3541" y="-99.8" font-family="Times,serif" font-size="14.00" fill="#000000">MyBetsComponent</text>
</g>
<!-- MyBetsComponent&#45;&gt;SharedModule -->
<g id="edge38" class="edge">
<title>MyBetsComponent&#45;&gt;SharedModule</title>
<path fill="none" stroke="#000000" d="M3481.5358,-122.0109C3481.5358,-122.0109 3481.5358,-151.855 3481.5358,-151.855"/>
<polygon fill="#000000" stroke="#000000" points="3478.0359,-151.8549 3481.5358,-161.855 3485.0359,-151.855 3478.0359,-151.8549"/>
</g>
<!-- OhbSelectComponent -->
<g id="node41" class="node">
<title>OhbSelectComponent</title>
<polygon fill="#ffffb3" stroke="#000000" points="3459.647,-122 3320.353,-122 3320.353,-86 3459.647,-86 3459.647,-122"/>
<text text-anchor="middle" x="3390" y="-99.8" font-family="Times,serif" font-size="14.00" fill="#000000">OhbSelectComponent</text>
</g>
<!-- OhbSelectComponent&#45;&gt;SharedModule -->
<g id="edge39" class="edge">
<title>OhbSelectComponent&#45;&gt;SharedModule</title>
<path fill="none" stroke="#000000" d="M3455.9111,-122.0109C3455.9111,-122.0109 3455.9111,-151.855 3455.9111,-151.855"/>
<polygon fill="#000000" stroke="#000000" points="3452.4112,-151.8549 3455.9111,-161.855 3459.4112,-151.855 3452.4112,-151.8549"/>
</g>
<!-- StakeNumpadComponent -->
<g id="node42" class="node">
<title>StakeNumpadComponent</title>
<polygon fill="#ffffb3" stroke="#000000" points="3302.147,-122 3141.853,-122 3141.853,-86 3302.147,-86 3302.147,-122"/>
<text text-anchor="middle" x="3222" y="-99.8" font-family="Times,serif" font-size="14.00" fill="#000000">StakeNumpadComponent</text>
</g>
<!-- StakeNumpadComponent&#45;&gt;SharedModule -->
<g id="edge40" class="edge">
<title>StakeNumpadComponent&#45;&gt;SharedModule</title>
<path fill="none" stroke="#000000" d="M3255.7542,-122.08C3255.7542,-123.8464 3255.7542,-125 3255.7542,-125 3255.7542,-125 3451.9989,-125 3451.9989,-125 3451.9989,-125 3451.9989,-151.9909 3451.9989,-151.9909"/>
<polygon fill="#000000" stroke="#000000" points="3448.499,-151.9909 3451.9989,-161.9909 3455.499,-151.991 3448.499,-151.9909"/>
</g>
</g>
</svg>
